<svg width="38" height="68" viewBox="0 0 38 68" fill="none" xmlns="http://www.w3.org/2000/svg">
<path d="M36.7783 44.0645C36.7104 44.3128 36.7392 44.5875 36.8779 44.8281C36.9525 44.9575 37 45.1149 37 45.3008V47.8037C37.0001 48.3559 37.4478 48.8037 38 48.8037V51.8086C37.4478 51.8086 37.0002 52.2565 37 52.8086V55.3115C37 55.5982 36.872 55.8623 36.6631 56.0352L36.5693 56.1035L35.1436 57C34.6763 57.2942 34.5361 57.9116 34.8301 58.3789L33.6729 59.1074L33.6143 59.0234C33.3231 58.6505 32.8066 58.5328 32.3828 58.7432L32.2939 58.7939L29.4443 60.5869C28.977 60.881 28.8359 61.4984 29.1299 61.9658L27.9727 62.6943L27.9141 62.6104C27.623 62.2377 27.1073 62.1202 26.6836 62.3301L26.5938 62.3809L23.7441 64.1738C23.2768 64.4679 23.1358 65.0853 23.4297 65.5527L22.2725 66.2812L22.2139 66.1973C21.9228 65.8246 21.4071 65.707 20.9834 65.917L20.8936 65.9678L19.4688 66.8643C19.1809 67.0453 18.8191 67.0453 18.5313 66.8643L17.1064 65.9678L17.0166 65.917C16.5626 65.692 16.0033 65.8432 15.7275 66.2812H15.7266L14.5693 65.5527H14.5703C14.8642 65.0853 14.7232 64.4679 14.2559 64.1738L11.4063 62.3809L11.3164 62.3301C10.8624 62.1052 10.303 62.2563 10.0273 62.6943H10.0264L8.86914 61.9658H8.87012C9.16405 61.4984 9.02301 60.881 8.55566 60.5869L5.70605 58.7939L5.61719 58.7432C5.1631 58.5178 4.60295 58.6691 4.32715 59.1074H4.32617L3.16895 58.3789H3.16992C3.46388 57.9116 3.32367 57.2942 2.85645 57L1.43066 56.1035L1.33691 56.0352C1.12797 55.8623 1 55.5982 1 55.3115L1 52.8086C0.999786 52.2565 0.552153 51.8086 0 51.8086L0 48.8037C0.517919 48.8037 0.944112 48.4097 0.995117 47.9053L1 47.8037L1 45.3008C1 45.1615 1.02656 45.0381 1.07129 44.9307L1.12207 44.8281C1.25993 44.5889 1.28803 44.3164 1.22168 44.0693L1.21973 44.0635C1.39702 44.248 1.64488 44.3646 1.9209 44.3701C2.06421 44.373 2.21673 44.4129 2.36914 44.5088L4.25586 45.6963C4.7231 45.9903 5.3395 45.8498 5.63379 45.3828L7.71582 46.6924C7.42182 47.1598 7.563 47.7771 8.03027 48.0713L11.8047 50.4463C12.272 50.7404 12.8884 50.6 13.1826 50.1328L15.2637 51.4424C14.9698 51.9098 15.1118 52.5272 15.5791 52.8213L17.4658 54.0088C18.3461 54.5628 19.4475 54.5981 20.3555 54.1133L20.5342 54.0088L22.4209 52.8213C22.8883 52.5271 23.0295 51.9098 22.7354 51.4424L24.8164 50.1328C25.1106 50.6002 25.7279 50.7404 26.1953 50.4463L29.9697 48.0713C30.437 47.7771 30.5773 47.1598 30.2832 46.6924L32.3652 45.3828C32.6409 45.8208 33.2004 45.9719 33.6543 45.7471L33.7441 45.6963L35.6309 44.5088C35.7833 44.4129 35.9358 44.373 36.0791 44.3701C36.3544 44.3646 36.6011 44.2481 36.7783 44.0645ZM36.7783 22.3789C36.7103 22.6272 36.7393 22.9019 36.8779 23.1426C36.9525 23.2719 36.9999 23.4295 37 23.6152V26.1182C37 26.6704 37.4477 27.1182 38 27.1182V30.124C37.4477 30.124 37 30.5717 37 31.124V33.627C36.9999 33.9137 36.8721 34.1778 36.6631 34.3506L36.5693 34.418L35.1436 35.3154C34.6768 35.6095 34.5359 36.2262 34.8291 36.6934L33.6729 37.4219C33.3969 36.9838 32.8368 36.8332 32.3828 37.0586L32.2939 37.1084L29.4443 38.9023C28.9773 39.1963 28.8356 39.813 29.1289 40.2803L27.9727 41.0088C27.6784 40.5417 27.061 40.4013 26.5938 40.6953L23.7441 42.4893C23.2767 42.7834 23.1355 43.4007 23.4297 43.8682L22.2725 44.5957C21.9782 44.1287 21.3608 43.9882 20.8936 44.2822L19.4688 45.1787C19.1808 45.3599 18.8192 45.3599 18.5313 45.1787L17.1064 44.2822L17.0166 44.2324C16.5626 44.0073 16.0023 44.1576 15.7266 44.5957L14.5693 43.8682C14.8635 43.4007 14.7233 42.7834 14.2559 42.4893L11.4063 40.6953L11.3164 40.6455C10.8624 40.4205 10.3021 40.5707 10.0264 41.0088L8.87012 40.2803C9.16374 39.8129 9.02289 39.1964 8.55566 38.9023L5.70605 37.1084C5.23863 36.8143 4.6203 36.9545 4.32617 37.4219L3.16992 36.6934C3.46353 36.2261 3.32338 35.6096 2.85645 35.3154L1.43066 34.418C1.19988 34.2725 1.04338 34.0266 1.00781 33.748L1 33.627V31.124C1 30.5717 0.552285 30.124 0 30.124L0 27.1182C0.552285 27.1182 1 26.6704 1 26.1182L1 23.6152C1.00005 23.4759 1.0265 23.3526 1.07129 23.2451L1.12207 23.1426C1.26093 22.9014 1.28826 22.6266 1.21973 22.3779C1.39704 22.5626 1.64474 22.68 1.9209 22.6855C2.0642 22.6884 2.21673 22.7283 2.36914 22.8242L4.25586 24.0117C4.72323 24.3058 5.33959 24.1645 5.63379 23.6973L7.7168 25.0068V25.0078C7.42267 25.4752 7.56285 26.0926 8.03027 26.3867L11.8047 28.7617C12.272 29.0557 12.8894 28.9154 13.1836 28.4482V28.4473L15.2646 29.7568V29.7578C14.9707 30.2252 15.1117 30.8426 15.5791 31.1367L17.4658 32.3242C18.3462 32.8782 19.4475 32.9126 20.3555 32.4277L20.5342 32.3242L22.4209 31.1367C22.8883 30.8426 23.0285 30.2243 22.7344 29.7568L24.8154 28.4473L24.8164 28.4482C25.0923 28.8864 25.6524 29.0369 26.1064 28.8115L26.1953 28.7617L29.9697 26.3867C30.4372 26.0926 30.5773 25.4752 30.2832 25.0078L30.2822 25.0068L32.3652 23.6973C32.6409 24.1354 33.2003 24.2866 33.6543 24.0615L33.7441 24.0117L35.6309 22.8242C35.7451 22.7524 35.8594 22.7113 35.9697 22.6943L36.0791 22.6855C36.3545 22.68 36.6011 22.5627 36.7783 22.3789ZM0.977539 43.6367C0.973081 43.6321 0.968426 43.6276 0.963867 43.623C0.966773 43.6214 0.969742 43.6198 0.972656 43.6182C0.974241 43.6244 0.975838 43.6306 0.977539 43.6367ZM37.0352 43.623C37.0306 43.6276 37.0259 43.6321 37.0215 43.6367C37.0232 43.6306 37.0248 43.6244 37.0264 43.6182C37.0293 43.6198 37.0322 43.6214 37.0352 43.623ZM36.7783 0.694336C36.7104 0.942635 36.7392 1.21735 36.8779 1.45801C36.9525 1.5874 37 1.74474 37 1.93066V4.43359C37.0001 4.98579 37.4478 5.43359 38 5.43359V8.43848C37.4479 8.43848 37.0002 8.8864 37 9.43848V11.9414C37 12.2281 36.872 12.4922 36.6631 12.665L36.5693 12.7334L35.1436 13.6299C34.6763 13.924 34.5362 14.5414 34.8301 15.0088L33.6729 15.7373L33.6143 15.6533C33.3231 15.2804 32.8066 15.1627 32.3828 15.373L32.2939 15.4238L29.4443 17.2168C28.977 17.5109 28.836 18.1283 29.1299 18.5957L27.9727 19.3242L27.9141 19.2402C27.623 18.8676 27.1073 18.7501 26.6836 18.96L26.5938 19.0107L23.7441 20.8037C23.2768 21.0978 23.1358 21.7152 23.4297 22.1826L22.2725 22.9111L22.2139 22.8271C21.9228 22.4545 21.4071 22.3369 20.9834 22.5469L20.8936 22.5977L19.4688 23.4941C19.1809 23.6752 18.8191 23.6752 18.5312 23.4941L17.1064 22.5977L17.0166 22.5469C16.5627 22.3219 16.0033 22.4731 15.7275 22.9111H15.7266L14.5693 22.1826H14.5703C14.8642 21.7152 14.7232 21.0978 14.2559 20.8037L11.4063 19.0107L11.3164 18.96C10.8625 18.7351 10.303 18.8862 10.0273 19.3242H10.0264L8.86914 18.5957H8.87012C9.16402 18.1283 9.023 17.5109 8.55566 17.2168L5.70605 15.4238L5.61719 15.373C5.16311 15.1477 4.60294 15.299 4.32715 15.7373H4.32617L3.16895 15.0088H3.16992C3.46385 14.5414 3.32367 13.924 2.85645 13.6299L1.43066 12.7334L1.33691 12.665C1.12798 12.4922 1 12.2281 1 11.9414L1 9.43848C0.999753 8.8864 0.552132 8.43848 0 8.43848L0 5.43359C0.51794 5.43359 0.94414 5.03965 0.995117 4.53516L1 4.43359L1 1.93066C1 1.79133 1.02655 1.66802 1.07129 1.56055L1.12207 1.45801C1.25991 1.21882 1.28804 0.946316 1.22168 0.699219L1.21973 0.693359C1.39702 0.877857 1.64486 0.994467 1.9209 1C2.06421 1.00288 2.21673 1.04276 2.36914 1.13867L4.25586 2.32617C4.72312 2.62021 5.33951 2.47971 5.63379 2.0127L7.71582 3.32227C7.42179 3.78963 7.563 4.407 8.03027 4.70117L11.8047 7.07617C12.272 7.37026 12.8884 7.22989 13.1826 6.7627L15.2637 8.07227C14.9698 8.53966 15.1118 9.15709 15.5791 9.45117L17.4658 10.6396C18.3461 11.1935 19.4476 11.2279 20.3555 10.7432L20.5342 10.6396L22.4209 9.45117C22.8883 9.15702 23.0295 8.5397 22.7354 8.07227L24.8164 6.7627C25.1106 7.23013 25.7279 7.37032 26.1953 7.07617L29.9697 4.70117C30.437 4.40698 30.5773 3.78964 30.2832 3.32227L32.3652 2.0127C32.6409 2.4507 33.2003 2.60183 33.6543 2.37695L33.7441 2.32617L35.6309 1.13867C35.7833 1.04276 35.9358 1.00288 36.0791 1C36.3544 0.994481 36.6011 0.877976 36.7783 0.694336ZM0.977539 21.9521C0.973081 21.9475 0.968426 21.943 0.963867 21.9385C0.966774 21.9368 0.969741 21.9352 0.972656 21.9336C0.974244 21.9398 0.975836 21.946 0.977539 21.9521ZM37.0352 21.9385C37.0306 21.943 37.0259 21.9475 37.0215 21.9521C37.0232 21.946 37.0248 21.9398 37.0264 21.9336C37.0293 21.9352 37.0322 21.9368 37.0352 21.9385ZM0.977539 0.266602C0.973081 0.261955 0.968426 0.257499 0.963867 0.25293C0.966773 0.251261 0.969742 0.2497 0.972656 0.248047C0.974241 0.254256 0.975838 0.260438 0.977539 0.266602ZM37.0352 0.25293C37.0306 0.257499 37.0259 0.261956 37.0215 0.266602C37.0232 0.260433 37.0248 0.254262 37.0264 0.248047C37.0293 0.249699 37.0322 0.251262 37.0352 0.25293Z" stroke="white" stroke-width="2" stroke-linecap="round" stroke-dasharray="4 4"/>
</svg>
