<svg width="44" height="78" viewBox="0 0 44 78" fill="none" xmlns="http://www.w3.org/2000/svg">
<path d="M42.7266 49.957C42.8255 50.0034 42.9205 50.0578 43.0117 50.1182C42.6827 50.4307 42.5989 50.9391 42.8379 51.3477C42.9378 51.5183 43 51.7242 43 51.9629V54.833C43 55.3853 43.4477 55.833 44 55.833V59.5752C43.4477 59.5752 43 60.0229 43 60.5752V63.4463C42.9999 63.8146 42.834 64.1583 42.5566 64.3857L42.4307 64.4766L40.7803 65.5049C40.3119 65.7971 40.1688 66.4142 40.4609 66.8828L38.8584 67.8818C38.5662 67.4132 37.9491 67.2694 37.4805 67.5615L34.1807 69.6191C33.7122 69.9111 33.5688 70.5275 33.8604 70.9961L32.2578 71.9961C31.9838 71.5566 31.4248 71.4033 30.9697 71.627L30.8809 71.6768L27.5811 73.7334C27.1128 74.0253 26.9685 74.6418 27.2598 75.1104L25.6572 76.1094C25.383 75.6708 24.8248 75.518 24.3701 75.7412L24.2803 75.791L22.6309 76.8193C22.2443 77.0603 21.7557 77.0603 21.3691 76.8193L19.7197 75.791L19.6299 75.7412C19.1751 75.518 18.6159 75.6705 18.3418 76.1094L16.7393 75.1104C17.0309 74.6418 16.8874 74.0254 16.4189 73.7334L13.1191 71.6768L13.0303 71.627C12.5752 71.4033 12.0152 71.5566 11.7412 71.9961L10.1387 70.9961C10.4306 70.5275 10.2879 69.9112 9.81934 69.6191L6.51953 67.5615L6.42969 67.5127C5.97467 67.2894 5.41454 67.4424 5.14063 67.8818L3.53809 66.8828C3.83019 66.4142 3.68815 65.7971 3.21973 65.5049L1.56934 64.4766L1.44336 64.3857C1.20561 64.1908 1.04953 63.9106 1.00977 63.6025L1 63.4463L1 60.5752C1 60.0229 0.552285 59.5752 0 59.5752L0 55.833C0.552285 55.833 1 55.3853 1 54.833L1 51.9629C1 51.7839 1.03514 51.6234 1.09473 51.4824L1.16211 51.3477C1.4012 50.9389 1.31675 50.4306 0.987305 50.1182C1.07848 50.0578 1.17354 50.0034 1.27246 49.957C1.36669 50.4009 1.75626 50.7379 2.22949 50.748C2.42502 50.7523 2.63032 50.8075 2.83105 50.9326L4.28711 51.8408C4.7557 52.1329 5.37184 51.989 5.66406 51.5205L6.88086 52.2783V52.2793C6.58904 52.7479 6.73264 53.3642 7.20117 53.6562L10.1143 55.4727C10.5829 55.7648 11.2 55.622 11.4922 55.1533V55.1523L12.707 55.9111H12.708C12.4159 56.3797 12.5589 56.9968 13.0273 57.2891L15.9414 59.1055C16.41 59.3974 17.0263 59.2537 17.3184 58.7852V58.7842L18.5352 59.543V59.5439C18.243 60.0126 18.3858 60.6297 18.8545 60.9219L20.3115 61.8291C21.3456 62.4738 22.6544 62.4738 23.6885 61.8291L25.1455 60.9219C25.6142 60.6297 25.757 60.0126 25.4648 59.5439L25.4639 59.543L26.6807 58.7842L26.6816 58.7852C26.9556 59.2246 27.5147 59.3787 27.9697 59.1553L28.0586 59.1055L30.9727 57.2891C31.4118 57.0151 31.5649 56.4559 31.3418 56.001L31.292 55.9111L32.5068 55.1523L32.5078 55.1533C32.8 55.622 33.4171 55.7648 33.8857 55.4727L36.7988 53.6562C37.2675 53.3641 37.4103 52.747 37.1182 52.2783L38.335 51.5205C38.6089 51.9599 39.168 52.113 39.623 51.8896L39.7129 51.8408L41.1689 50.9326C41.3697 50.8075 41.575 50.7523 41.7705 50.748C42.2437 50.7379 42.6323 50.4008 42.7266 49.957ZM42.7266 25.083C42.8255 25.1294 42.9205 25.1838 43.0117 25.2441C42.6827 25.5567 42.5989 26.065 42.8379 26.4736C42.9378 26.6443 43 26.8502 43 27.0889V29.959C43 30.5113 43.4477 30.959 44 30.959V34.7012C43.4477 34.7012 43 35.1489 43 35.7012V38.5723C42.9999 38.9406 42.834 39.2843 42.5566 39.5117L42.4307 39.6025L40.7803 40.6309C40.3118 40.9231 40.1688 41.5402 40.4609 42.0088L38.8584 43.0078C38.5662 42.5392 37.9491 42.3954 37.4805 42.6875L34.1807 44.7451C33.7123 45.0371 33.5688 45.6535 33.8604 46.1221L32.2578 47.1221C31.9838 46.6826 31.4248 46.5293 30.9697 46.7529L30.8809 46.8027L27.5811 48.8594C27.1128 49.1513 26.9685 49.7678 27.2598 50.2363L25.6572 51.2354C25.383 50.7968 24.8248 50.644 24.3701 50.8672L24.2803 50.917L22.6309 51.9453C22.2926 52.1562 21.8762 52.1826 21.5186 52.0244L21.3691 51.9453L19.7197 50.917L19.6299 50.8672C19.1751 50.6439 18.6159 50.7965 18.3418 51.2354L16.7393 50.2363C17.0308 49.7677 16.8874 49.1514 16.4189 48.8594L13.1191 46.8027L13.0303 46.7529C12.5752 46.5293 12.0152 46.6825 11.7412 47.1221L10.1387 46.1221C10.4305 45.6534 10.2879 45.0372 9.81934 44.7451L6.51953 42.6875L6.42969 42.6387C5.97467 42.4153 5.41454 42.5684 5.14063 43.0078L3.53809 42.0088C3.83019 41.5402 3.68815 40.9231 3.21973 40.6309L1.56934 39.6025L1.44336 39.5117C1.20561 39.3168 1.04952 39.0366 1.00977 38.7285L1 38.5723L1 35.7012C1 35.1489 0.552285 34.7012 0 34.7012L0 30.959C0.552285 30.959 1 30.5113 1 29.959V27.0889C1 26.9098 1.03514 26.7493 1.09473 26.6084L1.16211 26.4736C1.4012 26.0648 1.31676 25.5566 0.987305 25.2441C1.07848 25.1838 1.17354 25.1294 1.27246 25.083C1.36668 25.5268 1.75625 25.8639 2.22949 25.874C2.42502 25.8783 2.63032 25.9335 2.83105 26.0586L4.28711 26.9668C4.75571 27.2589 5.37184 27.115 5.66406 26.6465L6.88086 27.4043V27.4053C6.58903 27.8739 6.73263 28.4901 7.20117 28.7822L10.1143 30.5986C10.5829 30.8908 11.2 30.748 11.4922 30.2793V30.2783L12.707 31.0371H12.708C12.4159 31.5057 12.5589 32.1228 13.0273 32.415L15.9414 34.2314C16.41 34.5234 17.0263 34.3797 17.3184 33.9111V33.9102L18.5352 34.6689V34.6699C18.243 35.1386 18.3858 35.7557 18.8545 36.0479L20.3115 36.9551C21.3456 37.5997 22.6544 37.5997 23.6885 36.9551L25.1455 36.0479C25.6142 35.7557 25.757 35.1386 25.4648 34.6699L25.4639 34.6689L26.6807 33.9102L26.6816 33.9111C26.9556 34.3506 27.5147 34.5047 27.9697 34.2812L28.0586 34.2314L30.9727 32.415C31.4118 32.1411 31.565 31.5819 31.3418 31.127L31.292 31.0371L32.5068 30.2783L32.5078 30.2793C32.8 30.748 33.4171 30.8908 33.8857 30.5986L36.7988 28.7822C37.2675 28.4901 37.4103 27.873 37.1182 27.4043L38.335 26.6465C38.6089 27.0859 39.168 27.239 39.623 27.0156L39.7129 26.9668L41.1689 26.0586C41.3697 25.9335 41.575 25.8783 41.7705 25.874C42.2437 25.8639 42.6323 25.5267 42.7266 25.083ZM42.7266 0.208984C42.8255 0.255352 42.9205 0.3098 43.0117 0.370117C42.6827 0.682623 42.5989 1.19102 42.8379 1.59961C42.9378 1.77024 43 1.97618 43 2.21484V5.08496C43 5.63725 43.4477 6.08496 44 6.08496V9.82715C43.4477 9.82715 43 10.2749 43 10.8271V13.6982C42.9999 14.0666 42.834 14.4103 42.5566 14.6377L42.4307 14.7285L40.7803 15.7568C40.3118 16.0491 40.1688 16.6662 40.4609 17.1348L38.8584 18.1338C38.5662 17.6651 37.9491 17.5214 37.4805 17.8135L34.1807 19.8711C33.7123 20.1631 33.5689 20.7795 33.8604 21.248L32.2578 22.248C31.9838 21.8086 31.4248 21.6553 30.9697 21.8789L30.8809 21.9287L27.5811 23.9854C27.1128 24.2773 26.9686 24.8938 27.2598 25.3623L25.6572 26.3613C25.383 25.9228 24.8247 25.77 24.3701 25.9932L24.2803 26.043L22.6309 27.0713C22.2926 27.2821 21.8762 27.3086 21.5186 27.1504L21.3691 27.0713L19.7197 26.043L19.6299 25.9932C19.1751 25.7699 18.6159 25.9225 18.3418 26.3613L16.7393 25.3623C17.0308 24.8937 16.8874 24.2774 16.4189 23.9854L13.1191 21.9287L13.0303 21.8789C12.5752 21.6553 12.0152 21.8085 11.7412 22.248L10.1387 21.248C10.4305 20.7794 10.2879 20.1632 9.81934 19.8711L6.51953 17.8135L6.42969 17.7646C5.97468 17.5413 5.41454 17.6944 5.14063 18.1338L3.53809 17.1348C3.83019 16.6662 3.68816 16.0491 3.21973 15.7568L1.56934 14.7285L1.44336 14.6377C1.20561 14.4428 1.04952 14.1625 1.00977 13.8545L1 13.6982V10.8271C1 10.2749 0.552285 9.82715 0 9.82715L0 6.08496C0.552285 6.08496 1 5.63725 1 5.08496V2.21484C1 2.0358 1.03513 1.87532 1.09473 1.73438L1.16211 1.59961C1.40119 1.1908 1.31676 0.682581 0.987305 0.370117C1.07848 0.309779 1.17354 0.255381 1.27246 0.208984C1.36667 0.652829 1.75625 0.989885 2.22949 1C2.42502 1.00423 2.63032 1.05943 2.83105 1.18457L4.28711 2.09277C4.75571 2.38489 5.37184 2.24096 5.66406 1.77246L6.88086 2.53027V2.53125C6.58901 2.99988 6.73263 3.61612 7.20117 3.9082L10.1143 5.72461C10.5828 6.0167 11.1989 5.87365 11.4912 5.40527L12.707 6.16309C12.4152 6.63164 12.559 7.24884 13.0273 7.54102L15.9414 9.35742C16.41 9.64937 17.0262 9.50569 17.3184 9.03711L18.5342 9.7959H18.5352C18.243 10.2646 18.3858 10.8817 18.8545 11.1738L20.3115 12.0811C21.3456 12.7257 22.6544 12.7257 23.6885 12.0811L25.1455 11.1738C25.5848 10.9 25.7377 10.3407 25.5146 9.88574L25.4648 9.7959L26.6807 9.03711L26.6816 9.03809C26.9557 9.47712 27.5149 9.63057 27.9697 9.40723L28.0586 9.35742L30.9727 7.54102C31.4411 7.24878 31.5841 6.63168 31.292 6.16309L32.5078 5.40527C32.8 5.87395 33.4171 6.01678 33.8857 5.72461L36.7988 3.9082C37.2675 3.61604 37.4103 2.99895 37.1182 2.53027L38.335 1.77246C38.6089 2.21187 39.168 2.36497 39.623 2.1416L39.7129 2.09277L41.1689 1.18457C41.3697 1.05943 41.575 1.00423 41.7705 1C42.2437 0.989886 42.6323 0.65273 42.7266 0.208984Z" stroke="white" stroke-width="2" stroke-linecap="round" stroke-dasharray="4 4"/>
</svg>
