<svg width="141" height="155" viewBox="0 0 141 155" fill="none" xmlns="http://www.w3.org/2000/svg">
<path d="M4.54839 2.27941C4.54839 3.5383 3.5302 4.55882 2.27419 4.55882C1.01819 4.55882 0 3.5383 0 2.27941C0 1.02053 1.01819 0 2.27419 0C3.5302 0 4.54839 1.02053 4.54839 2.27941Z" fill="white"/>
<path d="M18.1935 2.27941C18.1935 3.5383 17.1754 4.55882 15.9194 4.55882C14.6634 4.55882 13.6452 3.5383 13.6452 2.27941C13.6452 1.02053 14.6634 0 15.9194 0C17.1754 0 18.1935 1.02053 18.1935 2.27941Z" fill="white"/>
<path d="M31.8387 2.27941C31.8387 3.5383 30.8205 4.55882 29.5645 4.55882C28.3085 4.55882 27.2903 3.5383 27.2903 2.27941C27.2903 1.02053 28.3085 0 29.5645 0C30.8205 0 31.8387 1.02053 31.8387 2.27941Z" fill="white"/>
<path d="M45.4839 2.27941C45.4839 3.5383 44.4657 4.55882 43.2097 4.55882C41.9537 4.55882 40.9355 3.5383 40.9355 2.27941C40.9355 1.02053 41.9537 0 43.2097 0C44.4657 0 45.4839 1.02053 45.4839 2.27941Z" fill="white"/>
<path d="M59.129 2.27941C59.129 3.5383 58.1108 4.55882 56.8548 4.55882C55.5988 4.55882 54.5806 3.5383 54.5806 2.27941C54.5806 1.02053 55.5988 0 56.8548 0C58.1108 0 59.129 1.02053 59.129 2.27941Z" fill="white"/>
<path d="M72.7742 2.27941C72.7742 3.5383 71.756 4.55882 70.5 4.55882C69.244 4.55882 68.2258 3.5383 68.2258 2.27941C68.2258 1.02053 69.244 0 70.5 0C71.756 0 72.7742 1.02053 72.7742 2.27941Z" fill="white"/>
<path d="M86.4194 2.27941C86.4194 3.5383 85.4012 4.55882 84.1452 4.55882C82.8892 4.55882 81.871 3.5383 81.871 2.27941C81.871 1.02053 82.8892 0 84.1452 0C85.4012 0 86.4194 1.02053 86.4194 2.27941Z" fill="white"/>
<path d="M100.065 2.27941C100.065 3.5383 99.0463 4.55882 97.7903 4.55882C96.5343 4.55882 95.5161 3.5383 95.5161 2.27941C95.5161 1.02053 96.5343 0 97.7903 0C99.0463 0 100.065 1.02053 100.065 2.27941Z" fill="white"/>
<path d="M113.71 2.27941C113.71 3.5383 112.691 4.55882 111.435 4.55882C110.179 4.55882 109.161 3.5383 109.161 2.27941C109.161 1.02053 110.179 0 111.435 0C112.691 0 113.71 1.02053 113.71 2.27941Z" fill="white"/>
<path d="M127.355 2.27941C127.355 3.5383 126.337 4.55882 125.081 4.55882C123.825 4.55882 122.806 3.5383 122.806 2.27941C122.806 1.02053 123.825 0 125.081 0C126.337 0 127.355 1.02053 127.355 2.27941Z" fill="white"/>
<path d="M141 2.27941C141 3.5383 139.982 4.55882 138.726 4.55882C137.47 4.55882 136.452 3.5383 136.452 2.27941C136.452 1.02053 137.47 0 138.726 0C139.982 0 141 1.02053 141 2.27941Z" fill="white"/>
<path d="M4.54839 15.9559C4.54839 17.2148 3.5302 18.2353 2.27419 18.2353C1.01819 18.2353 0 17.2148 0 15.9559C0 14.697 1.01819 13.6765 2.27419 13.6765C3.5302 13.6765 4.54839 14.697 4.54839 15.9559Z" fill="white"/>
<path d="M18.1935 15.9559C18.1935 17.2148 17.1754 18.2353 15.9194 18.2353C14.6634 18.2353 13.6452 17.2148 13.6452 15.9559C13.6452 14.697 14.6634 13.6765 15.9194 13.6765C17.1754 13.6765 18.1935 14.697 18.1935 15.9559Z" fill="white"/>
<path d="M31.8387 15.9559C31.8387 17.2148 30.8205 18.2353 29.5645 18.2353C28.3085 18.2353 27.2903 17.2148 27.2903 15.9559C27.2903 14.697 28.3085 13.6765 29.5645 13.6765C30.8205 13.6765 31.8387 14.697 31.8387 15.9559Z" fill="white"/>
<path d="M45.4839 15.9559C45.4839 17.2148 44.4657 18.2353 43.2097 18.2353C41.9537 18.2353 40.9355 17.2148 40.9355 15.9559C40.9355 14.697 41.9537 13.6765 43.2097 13.6765C44.4657 13.6765 45.4839 14.697 45.4839 15.9559Z" fill="white"/>
<path d="M59.129 15.9559C59.129 17.2148 58.1108 18.2353 56.8548 18.2353C55.5988 18.2353 54.5806 17.2148 54.5806 15.9559C54.5806 14.697 55.5988 13.6765 56.8548 13.6765C58.1108 13.6765 59.129 14.697 59.129 15.9559Z" fill="white"/>
<path d="M72.7742 15.9559C72.7742 17.2148 71.756 18.2353 70.5 18.2353C69.244 18.2353 68.2258 17.2148 68.2258 15.9559C68.2258 14.697 69.244 13.6765 70.5 13.6765C71.756 13.6765 72.7742 14.697 72.7742 15.9559Z" fill="white"/>
<path d="M86.4194 15.9559C86.4194 17.2148 85.4012 18.2353 84.1452 18.2353C82.8892 18.2353 81.871 17.2148 81.871 15.9559C81.871 14.697 82.8892 13.6765 84.1452 13.6765C85.4012 13.6765 86.4194 14.697 86.4194 15.9559Z" fill="white"/>
<path d="M100.065 15.9559C100.065 17.2148 99.0463 18.2353 97.7903 18.2353C96.5343 18.2353 95.5161 17.2148 95.5161 15.9559C95.5161 14.697 96.5343 13.6765 97.7903 13.6765C99.0463 13.6765 100.065 14.697 100.065 15.9559Z" fill="white"/>
<path d="M113.71 15.9559C113.71 17.2148 112.691 18.2353 111.435 18.2353C110.179 18.2353 109.161 17.2148 109.161 15.9559C109.161 14.697 110.179 13.6765 111.435 13.6765C112.691 13.6765 113.71 14.697 113.71 15.9559Z" fill="white"/>
<path d="M127.355 15.9559C127.355 17.2148 126.337 18.2353 125.081 18.2353C123.825 18.2353 122.806 17.2148 122.806 15.9559C122.806 14.697 123.825 13.6765 125.081 13.6765C126.337 13.6765 127.355 14.697 127.355 15.9559Z" fill="white"/>
<path d="M141 15.9559C141 17.2148 139.982 18.2353 138.726 18.2353C137.47 18.2353 136.452 17.2148 136.452 15.9559C136.452 14.697 137.47 13.6765 138.726 13.6765C139.982 13.6765 141 14.697 141 15.9559Z" fill="white"/>
<path d="M4.54839 29.6324C4.54839 30.8912 3.5302 31.9118 2.27419 31.9118C1.01819 31.9118 0 30.8912 0 29.6324C0 28.3735 1.01819 27.3529 2.27419 27.3529C3.5302 27.3529 4.54839 28.3735 4.54839 29.6324Z" fill="white"/>
<path d="M18.1935 29.6324C18.1935 30.8912 17.1754 31.9118 15.9194 31.9118C14.6634 31.9118 13.6452 30.8912 13.6452 29.6324C13.6452 28.3735 14.6634 27.3529 15.9194 27.3529C17.1754 27.3529 18.1935 28.3735 18.1935 29.6324Z" fill="white"/>
<path d="M31.8387 29.6324C31.8387 30.8912 30.8205 31.9118 29.5645 31.9118C28.3085 31.9118 27.2903 30.8912 27.2903 29.6324C27.2903 28.3735 28.3085 27.3529 29.5645 27.3529C30.8205 27.3529 31.8387 28.3735 31.8387 29.6324Z" fill="white"/>
<path d="M45.4839 29.6324C45.4839 30.8912 44.4657 31.9118 43.2097 31.9118C41.9537 31.9118 40.9355 30.8912 40.9355 29.6324C40.9355 28.3735 41.9537 27.3529 43.2097 27.3529C44.4657 27.3529 45.4839 28.3735 45.4839 29.6324Z" fill="white"/>
<path d="M59.129 29.6324C59.129 30.8912 58.1108 31.9118 56.8548 31.9118C55.5988 31.9118 54.5806 30.8912 54.5806 29.6324C54.5806 28.3735 55.5988 27.3529 56.8548 27.3529C58.1108 27.3529 59.129 28.3735 59.129 29.6324Z" fill="white"/>
<path d="M72.7742 29.6324C72.7742 30.8912 71.756 31.9118 70.5 31.9118C69.244 31.9118 68.2258 30.8912 68.2258 29.6324C68.2258 28.3735 69.244 27.3529 70.5 27.3529C71.756 27.3529 72.7742 28.3735 72.7742 29.6324Z" fill="white"/>
<path d="M86.4194 29.6324C86.4194 30.8912 85.4012 31.9118 84.1452 31.9118C82.8892 31.9118 81.871 30.8912 81.871 29.6324C81.871 28.3735 82.8892 27.3529 84.1452 27.3529C85.4012 27.3529 86.4194 28.3735 86.4194 29.6324Z" fill="white"/>
<path d="M100.065 29.6324C100.065 30.8912 99.0463 31.9118 97.7903 31.9118C96.5343 31.9118 95.5161 30.8912 95.5161 29.6324C95.5161 28.3735 96.5343 27.3529 97.7903 27.3529C99.0463 27.3529 100.065 28.3735 100.065 29.6324Z" fill="white"/>
<path d="M113.71 29.6324C113.71 30.8912 112.691 31.9118 111.435 31.9118C110.179 31.9118 109.161 30.8912 109.161 29.6324C109.161 28.3735 110.179 27.3529 111.435 27.3529C112.691 27.3529 113.71 28.3735 113.71 29.6324Z" fill="white"/>
<path d="M127.355 29.6324C127.355 30.8912 126.337 31.9118 125.081 31.9118C123.825 31.9118 122.806 30.8912 122.806 29.6324C122.806 28.3735 123.825 27.3529 125.081 27.3529C126.337 27.3529 127.355 28.3735 127.355 29.6324Z" fill="white"/>
<path d="M141 29.6324C141 30.8912 139.982 31.9118 138.726 31.9118C137.47 31.9118 136.452 30.8912 136.452 29.6324C136.452 28.3735 137.47 27.3529 138.726 27.3529C139.982 27.3529 141 28.3735 141 29.6324Z" fill="white"/>
<path d="M4.54839 43.3088C4.54839 44.5677 3.5302 45.5882 2.27419 45.5882C1.01819 45.5882 0 44.5677 0 43.3088C0 42.0499 1.01819 41.0294 2.27419 41.0294C3.5302 41.0294 4.54839 42.0499 4.54839 43.3088Z" fill="white"/>
<path d="M18.1935 43.3088C18.1935 44.5677 17.1754 45.5882 15.9194 45.5882C14.6634 45.5882 13.6452 44.5677 13.6452 43.3088C13.6452 42.0499 14.6634 41.0294 15.9194 41.0294C17.1754 41.0294 18.1935 42.0499 18.1935 43.3088Z" fill="white"/>
<path d="M31.8387 43.3088C31.8387 44.5677 30.8205 45.5882 29.5645 45.5882C28.3085 45.5882 27.2903 44.5677 27.2903 43.3088C27.2903 42.0499 28.3085 41.0294 29.5645 41.0294C30.8205 41.0294 31.8387 42.0499 31.8387 43.3088Z" fill="white"/>
<path d="M45.4839 43.3088C45.4839 44.5677 44.4657 45.5882 43.2097 45.5882C41.9537 45.5882 40.9355 44.5677 40.9355 43.3088C40.9355 42.0499 41.9537 41.0294 43.2097 41.0294C44.4657 41.0294 45.4839 42.0499 45.4839 43.3088Z" fill="white"/>
<path d="M59.129 43.3088C59.129 44.5677 58.1108 45.5882 56.8548 45.5882C55.5988 45.5882 54.5806 44.5677 54.5806 43.3088C54.5806 42.0499 55.5988 41.0294 56.8548 41.0294C58.1108 41.0294 59.129 42.0499 59.129 43.3088Z" fill="white"/>
<path d="M72.7742 43.3088C72.7742 44.5677 71.756 45.5882 70.5 45.5882C69.244 45.5882 68.2258 44.5677 68.2258 43.3088C68.2258 42.0499 69.244 41.0294 70.5 41.0294C71.756 41.0294 72.7742 42.0499 72.7742 43.3088Z" fill="white"/>
<path d="M86.4194 43.3088C86.4194 44.5677 85.4012 45.5882 84.1452 45.5882C82.8892 45.5882 81.871 44.5677 81.871 43.3088C81.871 42.0499 82.8892 41.0294 84.1452 41.0294C85.4012 41.0294 86.4194 42.0499 86.4194 43.3088Z" fill="white"/>
<path d="M100.065 43.3088C100.065 44.5677 99.0463 45.5882 97.7903 45.5882C96.5343 45.5882 95.5161 44.5677 95.5161 43.3088C95.5161 42.0499 96.5343 41.0294 97.7903 41.0294C99.0463 41.0294 100.065 42.0499 100.065 43.3088Z" fill="white"/>
<path d="M113.71 43.3088C113.71 44.5677 112.691 45.5882 111.435 45.5882C110.179 45.5882 109.161 44.5677 109.161 43.3088C109.161 42.0499 110.179 41.0294 111.435 41.0294C112.691 41.0294 113.71 42.0499 113.71 43.3088Z" fill="white"/>
<path d="M127.355 43.3088C127.355 44.5677 126.337 45.5882 125.081 45.5882C123.825 45.5882 122.806 44.5677 122.806 43.3088C122.806 42.0499 123.825 41.0294 125.081 41.0294C126.337 41.0294 127.355 42.0499 127.355 43.3088Z" fill="white"/>
<path d="M141 43.3088C141 44.5677 139.982 45.5882 138.726 45.5882C137.47 45.5882 136.452 44.5677 136.452 43.3088C136.452 42.0499 137.47 41.0294 138.726 41.0294C139.982 41.0294 141 42.0499 141 43.3088Z" fill="white"/>
<path d="M4.54839 56.9853C4.54839 58.2442 3.5302 59.2647 2.27419 59.2647C1.01819 59.2647 0 58.2442 0 56.9853C0 55.7264 1.01819 54.7059 2.27419 54.7059C3.5302 54.7059 4.54839 55.7264 4.54839 56.9853Z" fill="white"/>
<path d="M18.1935 56.9853C18.1935 58.2442 17.1754 59.2647 15.9194 59.2647C14.6634 59.2647 13.6452 58.2442 13.6452 56.9853C13.6452 55.7264 14.6634 54.7059 15.9194 54.7059C17.1754 54.7059 18.1935 55.7264 18.1935 56.9853Z" fill="white"/>
<path d="M31.8387 56.9853C31.8387 58.2442 30.8205 59.2647 29.5645 59.2647C28.3085 59.2647 27.2903 58.2442 27.2903 56.9853C27.2903 55.7264 28.3085 54.7059 29.5645 54.7059C30.8205 54.7059 31.8387 55.7264 31.8387 56.9853Z" fill="white"/>
<path d="M45.4839 56.9853C45.4839 58.2442 44.4657 59.2647 43.2097 59.2647C41.9537 59.2647 40.9355 58.2442 40.9355 56.9853C40.9355 55.7264 41.9537 54.7059 43.2097 54.7059C44.4657 54.7059 45.4839 55.7264 45.4839 56.9853Z" fill="white"/>
<path d="M59.129 56.9853C59.129 58.2442 58.1108 59.2647 56.8548 59.2647C55.5988 59.2647 54.5806 58.2442 54.5806 56.9853C54.5806 55.7264 55.5988 54.7059 56.8548 54.7059C58.1108 54.7059 59.129 55.7264 59.129 56.9853Z" fill="white"/>
<path d="M72.7742 56.9853C72.7742 58.2442 71.756 59.2647 70.5 59.2647C69.244 59.2647 68.2258 58.2442 68.2258 56.9853C68.2258 55.7264 69.244 54.7059 70.5 54.7059C71.756 54.7059 72.7742 55.7264 72.7742 56.9853Z" fill="white"/>
<path d="M86.4194 56.9853C86.4194 58.2442 85.4012 59.2647 84.1452 59.2647C82.8892 59.2647 81.871 58.2442 81.871 56.9853C81.871 55.7264 82.8892 54.7059 84.1452 54.7059C85.4012 54.7059 86.4194 55.7264 86.4194 56.9853Z" fill="white"/>
<path d="M100.065 56.9853C100.065 58.2442 99.0463 59.2647 97.7903 59.2647C96.5343 59.2647 95.5161 58.2442 95.5161 56.9853C95.5161 55.7264 96.5343 54.7059 97.7903 54.7059C99.0463 54.7059 100.065 55.7264 100.065 56.9853Z" fill="white"/>
<path d="M113.71 56.9853C113.71 58.2442 112.691 59.2647 111.435 59.2647C110.179 59.2647 109.161 58.2442 109.161 56.9853C109.161 55.7264 110.179 54.7059 111.435 54.7059C112.691 54.7059 113.71 55.7264 113.71 56.9853Z" fill="white"/>
<path d="M127.355 56.9853C127.355 58.2442 126.337 59.2647 125.081 59.2647C123.825 59.2647 122.806 58.2442 122.806 56.9853C122.806 55.7264 123.825 54.7059 125.081 54.7059C126.337 54.7059 127.355 55.7264 127.355 56.9853Z" fill="white"/>
<path d="M141 56.9853C141 58.2442 139.982 59.2647 138.726 59.2647C137.47 59.2647 136.452 58.2442 136.452 56.9853C136.452 55.7264 137.47 54.7059 138.726 54.7059C139.982 54.7059 141 55.7264 141 56.9853Z" fill="white"/>
<path d="M4.54839 70.6618C4.54839 71.9206 3.5302 72.9412 2.27419 72.9412C1.01819 72.9412 0 71.9206 0 70.6618C0 69.4029 1.01819 68.3824 2.27419 68.3824C3.5302 68.3824 4.54839 69.4029 4.54839 70.6618Z" fill="white"/>
<path d="M18.1935 70.6618C18.1935 71.9206 17.1754 72.9412 15.9194 72.9412C14.6634 72.9412 13.6452 71.9206 13.6452 70.6618C13.6452 69.4029 14.6634 68.3824 15.9194 68.3824C17.1754 68.3824 18.1935 69.4029 18.1935 70.6618Z" fill="white"/>
<path d="M31.8387 70.6618C31.8387 71.9206 30.8205 72.9412 29.5645 72.9412C28.3085 72.9412 27.2903 71.9206 27.2903 70.6618C27.2903 69.4029 28.3085 68.3824 29.5645 68.3824C30.8205 68.3824 31.8387 69.4029 31.8387 70.6618Z" fill="white"/>
<path d="M45.4839 70.6618C45.4839 71.9206 44.4657 72.9412 43.2097 72.9412C41.9537 72.9412 40.9355 71.9206 40.9355 70.6618C40.9355 69.4029 41.9537 68.3824 43.2097 68.3824C44.4657 68.3824 45.4839 69.4029 45.4839 70.6618Z" fill="white"/>
<path d="M59.129 70.6618C59.129 71.9206 58.1108 72.9412 56.8548 72.9412C55.5988 72.9412 54.5806 71.9206 54.5806 70.6618C54.5806 69.4029 55.5988 68.3824 56.8548 68.3824C58.1108 68.3824 59.129 69.4029 59.129 70.6618Z" fill="white"/>
<path d="M72.7742 70.6618C72.7742 71.9206 71.756 72.9412 70.5 72.9412C69.244 72.9412 68.2258 71.9206 68.2258 70.6618C68.2258 69.4029 69.244 68.3824 70.5 68.3824C71.756 68.3824 72.7742 69.4029 72.7742 70.6618Z" fill="white"/>
<path d="M86.4194 70.6618C86.4194 71.9206 85.4012 72.9412 84.1452 72.9412C82.8892 72.9412 81.871 71.9206 81.871 70.6618C81.871 69.4029 82.8892 68.3824 84.1452 68.3824C85.4012 68.3824 86.4194 69.4029 86.4194 70.6618Z" fill="white"/>
<path d="M100.065 70.6618C100.065 71.9206 99.0463 72.9412 97.7903 72.9412C96.5343 72.9412 95.5161 71.9206 95.5161 70.6618C95.5161 69.4029 96.5343 68.3824 97.7903 68.3824C99.0463 68.3824 100.065 69.4029 100.065 70.6618Z" fill="white"/>
<path d="M113.71 70.6618C113.71 71.9206 112.691 72.9412 111.435 72.9412C110.179 72.9412 109.161 71.9206 109.161 70.6618C109.161 69.4029 110.179 68.3824 111.435 68.3824C112.691 68.3824 113.71 69.4029 113.71 70.6618Z" fill="white"/>
<path d="M127.355 70.6618C127.355 71.9206 126.337 72.9412 125.081 72.9412C123.825 72.9412 122.806 71.9206 122.806 70.6618C122.806 69.4029 123.825 68.3824 125.081 68.3824C126.337 68.3824 127.355 69.4029 127.355 70.6618Z" fill="white"/>
<path d="M141 70.6618C141 71.9206 139.982 72.9412 138.726 72.9412C137.47 72.9412 136.452 71.9206 136.452 70.6618C136.452 69.4029 137.47 68.3824 138.726 68.3824C139.982 68.3824 141 69.4029 141 70.6618Z" fill="white"/>
<path d="M4.54839 84.3382C4.54839 85.5971 3.5302 86.6176 2.27419 86.6176C1.01819 86.6176 0 85.5971 0 84.3382C0 83.0793 1.01819 82.0588 2.27419 82.0588C3.5302 82.0588 4.54839 83.0793 4.54839 84.3382Z" fill="white"/>
<path d="M18.1935 84.3382C18.1935 85.5971 17.1754 86.6176 15.9194 86.6176C14.6634 86.6176 13.6452 85.5971 13.6452 84.3382C13.6452 83.0793 14.6634 82.0588 15.9194 82.0588C17.1754 82.0588 18.1935 83.0793 18.1935 84.3382Z" fill="white"/>
<path d="M31.8387 84.3382C31.8387 85.5971 30.8205 86.6176 29.5645 86.6176C28.3085 86.6176 27.2903 85.5971 27.2903 84.3382C27.2903 83.0793 28.3085 82.0588 29.5645 82.0588C30.8205 82.0588 31.8387 83.0793 31.8387 84.3382Z" fill="white"/>
<path d="M45.4839 84.3382C45.4839 85.5971 44.4657 86.6176 43.2097 86.6176C41.9537 86.6176 40.9355 85.5971 40.9355 84.3382C40.9355 83.0793 41.9537 82.0588 43.2097 82.0588C44.4657 82.0588 45.4839 83.0793 45.4839 84.3382Z" fill="white"/>
<path d="M59.129 84.3382C59.129 85.5971 58.1108 86.6176 56.8548 86.6176C55.5988 86.6176 54.5806 85.5971 54.5806 84.3382C54.5806 83.0793 55.5988 82.0588 56.8548 82.0588C58.1108 82.0588 59.129 83.0793 59.129 84.3382Z" fill="white"/>
<path d="M72.7742 84.3382C72.7742 85.5971 71.756 86.6176 70.5 86.6176C69.244 86.6176 68.2258 85.5971 68.2258 84.3382C68.2258 83.0793 69.244 82.0588 70.5 82.0588C71.756 82.0588 72.7742 83.0793 72.7742 84.3382Z" fill="white"/>
<path d="M86.4194 84.3382C86.4194 85.5971 85.4012 86.6176 84.1452 86.6176C82.8892 86.6176 81.871 85.5971 81.871 84.3382C81.871 83.0793 82.8892 82.0588 84.1452 82.0588C85.4012 82.0588 86.4194 83.0793 86.4194 84.3382Z" fill="white"/>
<path d="M100.065 84.3382C100.065 85.5971 99.0463 86.6176 97.7903 86.6176C96.5343 86.6176 95.5161 85.5971 95.5161 84.3382C95.5161 83.0793 96.5343 82.0588 97.7903 82.0588C99.0463 82.0588 100.065 83.0793 100.065 84.3382Z" fill="white"/>
<path d="M113.71 84.3382C113.71 85.5971 112.691 86.6176 111.435 86.6176C110.179 86.6176 109.161 85.5971 109.161 84.3382C109.161 83.0793 110.179 82.0588 111.435 82.0588C112.691 82.0588 113.71 83.0793 113.71 84.3382Z" fill="white"/>
<path d="M127.355 84.3382C127.355 85.5971 126.337 86.6176 125.081 86.6176C123.825 86.6176 122.806 85.5971 122.806 84.3382C122.806 83.0793 123.825 82.0588 125.081 82.0588C126.337 82.0588 127.355 83.0793 127.355 84.3382Z" fill="white"/>
<path d="M141 84.3382C141 85.5971 139.982 86.6176 138.726 86.6176C137.47 86.6176 136.452 85.5971 136.452 84.3382C136.452 83.0793 137.47 82.0588 138.726 82.0588C139.982 82.0588 141 83.0793 141 84.3382Z" fill="white"/>
<path d="M4.54839 98.0147C4.54839 99.2736 3.5302 100.294 2.27419 100.294C1.01819 100.294 0 99.2736 0 98.0147C0 96.7558 1.01819 95.7353 2.27419 95.7353C3.5302 95.7353 4.54839 96.7558 4.54839 98.0147Z" fill="white"/>
<path d="M18.1935 98.0147C18.1935 99.2736 17.1754 100.294 15.9194 100.294C14.6634 100.294 13.6452 99.2736 13.6452 98.0147C13.6452 96.7558 14.6634 95.7353 15.9194 95.7353C17.1754 95.7353 18.1935 96.7558 18.1935 98.0147Z" fill="white"/>
<path d="M31.8387 98.0147C31.8387 99.2736 30.8205 100.294 29.5645 100.294C28.3085 100.294 27.2903 99.2736 27.2903 98.0147C27.2903 96.7558 28.3085 95.7353 29.5645 95.7353C30.8205 95.7353 31.8387 96.7558 31.8387 98.0147Z" fill="white"/>
<path d="M45.4839 98.0147C45.4839 99.2736 44.4657 100.294 43.2097 100.294C41.9537 100.294 40.9355 99.2736 40.9355 98.0147C40.9355 96.7558 41.9537 95.7353 43.2097 95.7353C44.4657 95.7353 45.4839 96.7558 45.4839 98.0147Z" fill="white"/>
<path d="M59.129 98.0147C59.129 99.2736 58.1108 100.294 56.8548 100.294C55.5988 100.294 54.5806 99.2736 54.5806 98.0147C54.5806 96.7558 55.5988 95.7353 56.8548 95.7353C58.1108 95.7353 59.129 96.7558 59.129 98.0147Z" fill="white"/>
<path d="M72.7742 98.0147C72.7742 99.2736 71.756 100.294 70.5 100.294C69.244 100.294 68.2258 99.2736 68.2258 98.0147C68.2258 96.7558 69.244 95.7353 70.5 95.7353C71.756 95.7353 72.7742 96.7558 72.7742 98.0147Z" fill="white"/>
<path d="M86.4194 98.0147C86.4194 99.2736 85.4012 100.294 84.1452 100.294C82.8892 100.294 81.871 99.2736 81.871 98.0147C81.871 96.7558 82.8892 95.7353 84.1452 95.7353C85.4012 95.7353 86.4194 96.7558 86.4194 98.0147Z" fill="white"/>
<path d="M100.065 98.0147C100.065 99.2736 99.0463 100.294 97.7903 100.294C96.5343 100.294 95.5161 99.2736 95.5161 98.0147C95.5161 96.7558 96.5343 95.7353 97.7903 95.7353C99.0463 95.7353 100.065 96.7558 100.065 98.0147Z" fill="white"/>
<path d="M113.71 98.0147C113.71 99.2736 112.691 100.294 111.435 100.294C110.179 100.294 109.161 99.2736 109.161 98.0147C109.161 96.7558 110.179 95.7353 111.435 95.7353C112.691 95.7353 113.71 96.7558 113.71 98.0147Z" fill="white"/>
<path d="M127.355 98.0147C127.355 99.2736 126.337 100.294 125.081 100.294C123.825 100.294 122.806 99.2736 122.806 98.0147C122.806 96.7558 123.825 95.7353 125.081 95.7353C126.337 95.7353 127.355 96.7558 127.355 98.0147Z" fill="white"/>
<path d="M141 98.0147C141 99.2736 139.982 100.294 138.726 100.294C137.47 100.294 136.452 99.2736 136.452 98.0147C136.452 96.7558 137.47 95.7353 138.726 95.7353C139.982 95.7353 141 96.7558 141 98.0147Z" fill="white"/>
<path d="M4.54839 111.691C4.54839 112.95 3.5302 113.971 2.27419 113.971C1.01819 113.971 0 112.95 0 111.691C0 110.432 1.01819 109.412 2.27419 109.412C3.5302 109.412 4.54839 110.432 4.54839 111.691Z" fill="white"/>
<path d="M18.1935 111.691C18.1935 112.95 17.1754 113.971 15.9194 113.971C14.6634 113.971 13.6452 112.95 13.6452 111.691C13.6452 110.432 14.6634 109.412 15.9194 109.412C17.1754 109.412 18.1935 110.432 18.1935 111.691Z" fill="white"/>
<path d="M31.8387 111.691C31.8387 112.95 30.8205 113.971 29.5645 113.971C28.3085 113.971 27.2903 112.95 27.2903 111.691C27.2903 110.432 28.3085 109.412 29.5645 109.412C30.8205 109.412 31.8387 110.432 31.8387 111.691Z" fill="white"/>
<path d="M45.4839 111.691C45.4839 112.95 44.4657 113.971 43.2097 113.971C41.9537 113.971 40.9355 112.95 40.9355 111.691C40.9355 110.432 41.9537 109.412 43.2097 109.412C44.4657 109.412 45.4839 110.432 45.4839 111.691Z" fill="white"/>
<path d="M59.129 111.691C59.129 112.95 58.1108 113.971 56.8548 113.971C55.5988 113.971 54.5806 112.95 54.5806 111.691C54.5806 110.432 55.5988 109.412 56.8548 109.412C58.1108 109.412 59.129 110.432 59.129 111.691Z" fill="white"/>
<path d="M72.7742 111.691C72.7742 112.95 71.756 113.971 70.5 113.971C69.244 113.971 68.2258 112.95 68.2258 111.691C68.2258 110.432 69.244 109.412 70.5 109.412C71.756 109.412 72.7742 110.432 72.7742 111.691Z" fill="white"/>
<path d="M86.4194 111.691C86.4194 112.95 85.4012 113.971 84.1452 113.971C82.8892 113.971 81.871 112.95 81.871 111.691C81.871 110.432 82.8892 109.412 84.1452 109.412C85.4012 109.412 86.4194 110.432 86.4194 111.691Z" fill="white"/>
<path d="M100.065 111.691C100.065 112.95 99.0463 113.971 97.7903 113.971C96.5343 113.971 95.5161 112.95 95.5161 111.691C95.5161 110.432 96.5343 109.412 97.7903 109.412C99.0463 109.412 100.065 110.432 100.065 111.691Z" fill="white"/>
<path d="M113.71 111.691C113.71 112.95 112.691 113.971 111.435 113.971C110.179 113.971 109.161 112.95 109.161 111.691C109.161 110.432 110.179 109.412 111.435 109.412C112.691 109.412 113.71 110.432 113.71 111.691Z" fill="white"/>
<path d="M127.355 111.691C127.355 112.95 126.337 113.971 125.081 113.971C123.825 113.971 122.806 112.95 122.806 111.691C122.806 110.432 123.825 109.412 125.081 109.412C126.337 109.412 127.355 110.432 127.355 111.691Z" fill="white"/>
<path d="M141 111.691C141 112.95 139.982 113.971 138.726 113.971C137.47 113.971 136.452 112.95 136.452 111.691C136.452 110.432 137.47 109.412 138.726 109.412C139.982 109.412 141 110.432 141 111.691Z" fill="white"/>
<path d="M4.54839 125.368C4.54839 126.627 3.5302 127.647 2.27419 127.647C1.01819 127.647 0 126.627 0 125.368C0 124.109 1.01819 123.088 2.27419 123.088C3.5302 123.088 4.54839 124.109 4.54839 125.368Z" fill="white"/>
<path d="M18.1935 125.368C18.1935 126.627 17.1754 127.647 15.9194 127.647C14.6634 127.647 13.6452 126.627 13.6452 125.368C13.6452 124.109 14.6634 123.088 15.9194 123.088C17.1754 123.088 18.1935 124.109 18.1935 125.368Z" fill="white"/>
<path d="M31.8387 125.368C31.8387 126.627 30.8205 127.647 29.5645 127.647C28.3085 127.647 27.2903 126.627 27.2903 125.368C27.2903 124.109 28.3085 123.088 29.5645 123.088C30.8205 123.088 31.8387 124.109 31.8387 125.368Z" fill="white"/>
<path d="M45.4839 125.368C45.4839 126.627 44.4657 127.647 43.2097 127.647C41.9537 127.647 40.9355 126.627 40.9355 125.368C40.9355 124.109 41.9537 123.088 43.2097 123.088C44.4657 123.088 45.4839 124.109 45.4839 125.368Z" fill="white"/>
<path d="M59.129 125.368C59.129 126.627 58.1108 127.647 56.8548 127.647C55.5988 127.647 54.5806 126.627 54.5806 125.368C54.5806 124.109 55.5988 123.088 56.8548 123.088C58.1108 123.088 59.129 124.109 59.129 125.368Z" fill="white"/>
<path d="M72.7742 125.368C72.7742 126.627 71.756 127.647 70.5 127.647C69.244 127.647 68.2258 126.627 68.2258 125.368C68.2258 124.109 69.244 123.088 70.5 123.088C71.756 123.088 72.7742 124.109 72.7742 125.368Z" fill="white"/>
<path d="M86.4194 125.368C86.4194 126.627 85.4012 127.647 84.1452 127.647C82.8892 127.647 81.871 126.627 81.871 125.368C81.871 124.109 82.8892 123.088 84.1452 123.088C85.4012 123.088 86.4194 124.109 86.4194 125.368Z" fill="white"/>
<path d="M100.065 125.368C100.065 126.627 99.0463 127.647 97.7903 127.647C96.5343 127.647 95.5161 126.627 95.5161 125.368C95.5161 124.109 96.5343 123.088 97.7903 123.088C99.0463 123.088 100.065 124.109 100.065 125.368Z" fill="white"/>
<path d="M113.71 125.368C113.71 126.627 112.691 127.647 111.435 127.647C110.179 127.647 109.161 126.627 109.161 125.368C109.161 124.109 110.179 123.088 111.435 123.088C112.691 123.088 113.71 124.109 113.71 125.368Z" fill="white"/>
<path d="M127.355 125.368C127.355 126.627 126.337 127.647 125.081 127.647C123.825 127.647 122.806 126.627 122.806 125.368C122.806 124.109 123.825 123.088 125.081 123.088C126.337 123.088 127.355 124.109 127.355 125.368Z" fill="white"/>
<path d="M141 125.368C141 126.627 139.982 127.647 138.726 127.647C137.47 127.647 136.452 126.627 136.452 125.368C136.452 124.109 137.47 123.088 138.726 123.088C139.982 123.088 141 124.109 141 125.368Z" fill="white"/>
<path d="M4.54839 139.044C4.54839 140.303 3.5302 141.324 2.27419 141.324C1.01819 141.324 0 140.303 0 139.044C0 137.785 1.01819 136.765 2.27419 136.765C3.5302 136.765 4.54839 137.785 4.54839 139.044Z" fill="white"/>
<path d="M18.1935 139.044C18.1935 140.303 17.1754 141.324 15.9194 141.324C14.6634 141.324 13.6452 140.303 13.6452 139.044C13.6452 137.785 14.6634 136.765 15.9194 136.765C17.1754 136.765 18.1935 137.785 18.1935 139.044Z" fill="white"/>
<path d="M31.8387 139.044C31.8387 140.303 30.8205 141.324 29.5645 141.324C28.3085 141.324 27.2903 140.303 27.2903 139.044C27.2903 137.785 28.3085 136.765 29.5645 136.765C30.8205 136.765 31.8387 137.785 31.8387 139.044Z" fill="white"/>
<path d="M45.4839 139.044C45.4839 140.303 44.4657 141.324 43.2097 141.324C41.9537 141.324 40.9355 140.303 40.9355 139.044C40.9355 137.785 41.9537 136.765 43.2097 136.765C44.4657 136.765 45.4839 137.785 45.4839 139.044Z" fill="white"/>
<path d="M59.129 139.044C59.129 140.303 58.1108 141.324 56.8548 141.324C55.5988 141.324 54.5806 140.303 54.5806 139.044C54.5806 137.785 55.5988 136.765 56.8548 136.765C58.1108 136.765 59.129 137.785 59.129 139.044Z" fill="white"/>
<path d="M72.7742 139.044C72.7742 140.303 71.756 141.324 70.5 141.324C69.244 141.324 68.2258 140.303 68.2258 139.044C68.2258 137.785 69.244 136.765 70.5 136.765C71.756 136.765 72.7742 137.785 72.7742 139.044Z" fill="white"/>
<path d="M86.4194 139.044C86.4194 140.303 85.4012 141.324 84.1452 141.324C82.8892 141.324 81.871 140.303 81.871 139.044C81.871 137.785 82.8892 136.765 84.1452 136.765C85.4012 136.765 86.4194 137.785 86.4194 139.044Z" fill="white"/>
<path d="M100.065 139.044C100.065 140.303 99.0463 141.324 97.7903 141.324C96.5343 141.324 95.5161 140.303 95.5161 139.044C95.5161 137.785 96.5343 136.765 97.7903 136.765C99.0463 136.765 100.065 137.785 100.065 139.044Z" fill="white"/>
<path d="M113.71 139.044C113.71 140.303 112.691 141.324 111.435 141.324C110.179 141.324 109.161 140.303 109.161 139.044C109.161 137.785 110.179 136.765 111.435 136.765C112.691 136.765 113.71 137.785 113.71 139.044Z" fill="white"/>
<path d="M127.355 139.044C127.355 140.303 126.337 141.324 125.081 141.324C123.825 141.324 122.806 140.303 122.806 139.044C122.806 137.785 123.825 136.765 125.081 136.765C126.337 136.765 127.355 137.785 127.355 139.044Z" fill="white"/>
<path d="M141 139.044C141 140.303 139.982 141.324 138.726 141.324C137.47 141.324 136.452 140.303 136.452 139.044C136.452 137.785 137.47 136.765 138.726 136.765C139.982 136.765 141 137.785 141 139.044Z" fill="white"/>
<path d="M4.54839 152.721C4.54839 153.979 3.5302 155 2.27419 155C1.01819 155 0 153.979 0 152.721C0 151.462 1.01819 150.441 2.27419 150.441C3.5302 150.441 4.54839 151.462 4.54839 152.721Z" fill="white"/>
<path d="M18.1935 152.721C18.1935 153.979 17.1754 155 15.9194 155C14.6634 155 13.6452 153.979 13.6452 152.721C13.6452 151.462 14.6634 150.441 15.9194 150.441C17.1754 150.441 18.1935 151.462 18.1935 152.721Z" fill="white"/>
<path d="M31.8387 152.721C31.8387 153.979 30.8205 155 29.5645 155C28.3085 155 27.2903 153.979 27.2903 152.721C27.2903 151.462 28.3085 150.441 29.5645 150.441C30.8205 150.441 31.8387 151.462 31.8387 152.721Z" fill="white"/>
<path d="M45.4839 152.721C45.4839 153.979 44.4657 155 43.2097 155C41.9537 155 40.9355 153.979 40.9355 152.721C40.9355 151.462 41.9537 150.441 43.2097 150.441C44.4657 150.441 45.4839 151.462 45.4839 152.721Z" fill="white"/>
<path d="M59.129 152.721C59.129 153.979 58.1108 155 56.8548 155C55.5988 155 54.5806 153.979 54.5806 152.721C54.5806 151.462 55.5988 150.441 56.8548 150.441C58.1108 150.441 59.129 151.462 59.129 152.721Z" fill="white"/>
<path d="M72.7742 152.721C72.7742 153.979 71.756 155 70.5 155C69.244 155 68.2258 153.979 68.2258 152.721C68.2258 151.462 69.244 150.441 70.5 150.441C71.756 150.441 72.7742 151.462 72.7742 152.721Z" fill="white"/>
<path d="M86.4194 152.721C86.4194 153.979 85.4012 155 84.1452 155C82.8892 155 81.871 153.979 81.871 152.721C81.871 151.462 82.8892 150.441 84.1452 150.441C85.4012 150.441 86.4194 151.462 86.4194 152.721Z" fill="white"/>
<path d="M100.065 152.721C100.065 153.979 99.0463 155 97.7903 155C96.5343 155 95.5161 153.979 95.5161 152.721C95.5161 151.462 96.5343 150.441 97.7903 150.441C99.0463 150.441 100.065 151.462 100.065 152.721Z" fill="white"/>
<path d="M113.71 152.721C113.71 153.979 112.691 155 111.435 155C110.179 155 109.161 153.979 109.161 152.721C109.161 151.462 110.179 150.441 111.435 150.441C112.691 150.441 113.71 151.462 113.71 152.721Z" fill="white"/>
<path d="M127.355 152.721C127.355 153.979 126.337 155 125.081 155C123.825 155 122.806 153.979 122.806 152.721C122.806 151.462 123.825 150.441 125.081 150.441C126.337 150.441 127.355 151.462 127.355 152.721Z" fill="white"/>
<path d="M141 152.721C141 153.979 139.982 155 138.726 155C137.47 155 136.452 153.979 136.452 152.721C136.452 151.462 137.47 150.441 138.726 150.441C139.982 150.441 141 151.462 141 152.721Z" fill="white"/>
</svg>
